<svg xmlns="http://www.w3.org/2000/svg" version="1.1" xmlns:xlink="http://www.w3.org/1999/xlink" xmlns:svgjs="http://svgjs.com/svgjs" width="1440" height="1000" preserveAspectRatio="none" viewBox="0 0 1440 1000"><g mask="url(&quot;#SvgjsMask1767&quot;)" fill="none"><rect width="1440" height="1000" x="0" y="0" fill="url(#SvgjsLinearGradient1768)"></rect><path d="M1464 1000L0 1000 L0 559.71Q68.35 508.06, 120 576.41Q185.56 521.97, 240 587.54Q259.82 535.36, 312 555.17Q306.05 429.21, 432 423.26Q500.65 371.91, 552 440.56Q641.54 458.1, 624 547.64Q692.74 544.38, 696 613.11Q716.07 561.18, 768 581.26Q753.24 494.5, 840 479.74Q891.75 411.5, 960 463.25Q1028.35 459.6, 1032 527.94Q1103.42 527.37, 1104 598.79Q1156.56 531.35, 1224 583.9Q1260.11 500.01, 1344 536.12Q1385.86 457.98, 1464 499.84z" fill="rgba(24, 47, 93, 1)"></path><path d="M1512 1000L0 1000 L0 576.26Q124.26 628.52, 72 752.78Q51.33 612.11, 192 591.43Q214.04 541.47, 264 563.51Q347.7 527.21, 384 610.92Q456.66 611.58, 456 684.24Q527.84 636.08, 576 707.91Q590.19 650.1, 648 664.29Q631.09 575.38, 720 558.46Q848.65 615.12, 792 743.77Q757.09 636.86, 864 601.95Q904.88 522.83, 984 563.7Q1031.55 539.25, 1056 586.81Q1163.79 622.6, 1128 730.39Q1084.93 615.32, 1200 572.24Q1271.64 523.88, 1320 595.53Q1406.24 609.77, 1392 696.02Q1386.29 570.31, 1512 564.59z" fill="rgba(37, 70, 125, 1)"></path><path d="M1488 1000L0 1000 L0 720.78Q62.77 711.55, 72 774.32Q127.44 757.76, 144 813.19Q227.59 824.78, 216 908.36Q184.56 756.92, 336 725.48Q369.76 687.24, 408 721Q467.61 708.61, 480 768.21Q505.93 722.14, 552 748.07Q647.25 723.32, 672 818.56Q701.78 776.34, 744 806.12Q793.63 783.75, 816 833.37Q839.76 737.13, 936 760.9Q963.07 715.97, 1008 743.04Q1068.89 731.93, 1080 792.82Q1148.03 740.86, 1200 808.89Q1272.75 809.64, 1272 882.39Q1314.38 852.76, 1344 895.14Q1348.61 827.75, 1416 832.35Q1400.13 744.48, 1488 728.6z" fill="rgba(53, 108, 177, 1)"></path><path d="M1488 1000L0 1000 L0 881.8Q72.64 834.44, 120 907.08Q174.55 841.63, 240 896.18Q308.34 892.51, 312 960.85Q407.75 936.61, 432 1032.36Q448.64 977, 504 993.64Q535.63 905.27, 624 936.9Q636.51 877.41, 696 889.93Q773.46 847.39, 816 924.85Q911.26 900.11, 936 995.37Q989.2 976.57, 1008 1029.77Q1032.02 933.78, 1128 957.8Q1117.84 875.64, 1200 865.48Q1234.02 827.5, 1272 861.52Q1326.22 843.74, 1344 897.95Q1458.22 940.18, 1416 1054.4Q1411.1 977.5, 1488 972.59z" fill="rgba(255, 255, 255, 1)"></path></g><defs><mask id="SvgjsMask1767"><rect width="1440" height="1000" fill="#ffffff"></rect></mask><linearGradient x1="50%" y1="100%" x2="50%" y2="0%" gradientUnits="userSpaceOnUse" id="SvgjsLinearGradient1768"><stop stop-color="#0e2a47" offset="0"></stop><stop stop-color="rgba(82, 150, 156, 1)" offset="1"></stop></linearGradient></defs></svg>