<svg xmlns="http://www.w3.org/2000/svg" version="1.1" xmlns:xlink="http://www.w3.org/1999/xlink" xmlns:svgjs="http://svgjs.com/svgjs" width="1440" height="2000" preserveAspectRatio="none" viewBox="0 0 1440 2000"><g mask="url(&quot;#SvgjsMask1080&quot;)" fill="none"><rect width="1440" height="2000" x="0" y="0" fill="url(#SvgjsLinearGradient1081)"></rect><path d="M1464 2000L0 2000 L0 1329.32Q69.42 1278.74, 120 1348.16Q134.67 1290.84, 192 1305.51Q258.18 1251.69, 312 1317.87Q316.11 1249.97, 384 1254.08Q403.96 1154.04, 504 1174Q461.38 1059.38, 576 1016.77Q760.74 1129.51, 648 1314.24Q633.41 1227.65, 720 1213.07Q772.42 1145.49, 840 1197.91Q944.43 1182.34, 960 1286.77Q1027.38 1234.15, 1080 1301.53Q1126.52 1276.05, 1152 1322.58Q1201.34 1299.92, 1224 1349.26Q1233.12 1238.38, 1344 1247.49Q1378.48 1161.97, 1464 1196.45z" fill="#182f5d"></path><path d="M1512 2000L0 2000 L0 1315.96Q28.65 1224.62, 120 1253.27Q202.13 1215.4, 240 1297.53Q314.37 1299.9, 312 1374.27Q377.61 1319.88, 432 1385.49Q471.37 1304.86, 552 1344.22Q600.65 1272.87, 672 1321.52Q762.99 1292.51, 792 1383.51Q807.5 1327.01, 864 1342.5Q880.34 1286.84, 936 1303.18Q975.77 1222.95, 1056 1262.71Q1104.97 1239.68, 1128 1288.66Q1224.39 1313.06, 1200 1409.45Q1265.87 1403.32, 1272 1469.18Q1374.75 1451.93, 1392 1554.69Q1463.99 1506.68, 1512 1578.66z" fill="#25467d"></path><path d="M1512 2000L0 2000 L0 1718.87Q-35.37 1563.5, 120 1528.13Q167.3 1455.43, 240 1502.73Q321.11 1463.84, 360 1544.95Q437.68 1502.63, 480 1580.31Q544.7 1573.01, 552 1637.7Q620.77 1634.47, 624 1703.23Q696.94 1704.17, 696 1777.11Q776.5 1737.61, 816 1818.12Q820.93 1703.05, 936 1707.97Q958.38 1658.36, 1008 1680.74Q1028.21 1580.95, 1128 1601.15Q1169.65 1522.81, 1248 1564.46Q1292.22 1536.68, 1320 1580.9Q1371.43 1560.33, 1392 1611.76Q1420.31 1520.07, 1512 1548.38z" fill="#356cb1"></path><path d="M1512 2000L0 2000 L0 1820.6Q68.06 1816.65, 72 1884.71Q88.17 1828.88, 144 1845.05Q165.7 1794.75, 216 1816.45Q261.17 1789.63, 288 1834.8Q392.87 1867.67, 360 1972.54Q355.9 1896.44, 432 1892.35Q447.72 1836.07, 504 1851.79Q549.66 1777.45, 624 1823.12Q686.47 1813.59, 696 1876.07Q780.31 1888.38, 768 1972.68Q731.4 1816.09, 888 1779.49Q937.26 1708.75, 1008 1758.01Q1187.24 1865.25, 1080 2044.49Q1137.15 2029.64, 1152 2086.79Q1176.18 2038.97, 1224 2063.14Q1218.29 1985.43, 1296 1979.72Q1239.29 1851.01, 1368 1794.29Q1486.37 1840.65, 1440 1959.02Q1418.11 1865.13, 1512 1843.24z" fill="white"></path></g><defs><mask id="SvgjsMask1080"><rect width="1440" height="2000" fill="#ffffff"></rect></mask><linearGradient x1="-9.72%" y1="7%" x2="109.72%" y2="93%" gradientUnits="userSpaceOnUse" id="SvgjsLinearGradient1081"><stop stop-color="#0e2a47" offset="0"></stop><stop stop-color="rgba(115, 197, 225, 1)" offset="1"></stop></linearGradient></defs></svg>