<svg xmlns="http://www.w3.org/2000/svg" version="1.1" xmlns:xlink="http://www.w3.org/1999/xlink" xmlns:svgjs="http://svgjs.com/svgjs" width="1440" height="560" preserveAspectRatio="none" viewBox="0 0 1440 560"><g mask="url(&quot;#SvgjsMask1145&quot;)" fill="none"><rect width="1440" height="560" x="0" y="0" fill="url(#SvgjsLinearGradient1146)"></rect><path d="M1512 560L0 560 L0 280.2Q108.7 268.9, 120 377.61Q144.16 281.77, 240 305.93Q317.48 263.41, 360 340.89Q405.22 314.11, 432 359.32Q452.34 307.66, 504 328.01Q548.73 300.74, 576 345.47Q645.61 295.08, 696 364.69Q732.42 281.11, 816 317.52Q869.72 251.24, 936 304.95Q985.15 282.11, 1008 331.26Q1090.71 293.97, 1128 376.68Q1180.45 309.13, 1248 361.58Q1264.48 306.06, 1320 322.54Q1342.01 272.55, 1392 294.55Q1481.81 264.36, 1512 354.16z" fill="#182f5d"></path><path d="M1464 560L0 560 L0 375.6Q74.65 330.25, 120 404.91Q135.19 348.11, 192 363.3Q262.26 313.56, 312 383.82Q380.18 332, 432 400.18Q476.29 372.47, 504 416.76Q554.76 395.52, 576 446.28Q580.86 379.13, 648 383.99Q677.53 341.52, 720 371.05Q798.75 329.8, 840 408.55Q875.44 323.99, 960 359.43Q1050.31 329.74, 1080 420.05Q1098.44 366.5, 1152 384.94Q1200.09 361.03, 1224 409.12Q1299.85 364.97, 1344 440.81Q1358.84 335.65, 1464 350.49z" fill="#25467d"></path><path d="M1488 560L0 560 L0 512.63Q25.41 418.04, 120 443.45Q165.89 417.34, 192 463.22Q260.49 411.71, 312 480.2Q323.39 419.59, 384 430.97Q451.51 378.48, 504 445.99Q594.62 416.61, 624 507.22Q653.99 465.21, 696 495.19Q731.55 410.75, 816 446.3Q861.14 419.44, 888 464.58Q944.12 448.69, 960 504.81Q970.69 443.5, 1032 454.18Q1054.26 404.44, 1104 426.7Q1146.66 397.37, 1176 440.03Q1228.61 420.64, 1248 473.25Q1301.61 406.86, 1368 460.47Q1418.38 390.85, 1488 441.22z" fill="#356cb1"></path><path d="M1464 560L0 560 L0 573.3Q22.12 523.41, 72 545.53Q152 505.53, 192 585.54Q215.46 489, 312 512.45Q339.94 468.39, 384 496.33Q487.8 480.13, 504 583.92Q533.87 493.78, 624 523.65Q674 501.64, 696 551.64Q745.31 528.95, 768 578.26Q795.69 533.95, 840 561.65Q874.76 476.41, 960 511.18Q1038.56 469.74, 1080 548.3Q1088.81 485.11, 1152 493.91Q1193.75 463.67, 1224 505.42Q1324.25 485.67, 1344 585.93Q1356.62 478.55, 1464 491.17z" fill="white"></path></g><defs><mask id="SvgjsMask1145"><rect width="1440" height="560" fill="#ffffff"></rect></mask><linearGradient x1="15.28%" y1="-39.29%" x2="84.72%" y2="139.29%" gradientUnits="userSpaceOnUse" id="SvgjsLinearGradient1146"><stop stop-color="#0e2a47" offset="0"></stop><stop stop-color="rgba(60, 81, 107, 1)" offset="1"></stop></linearGradient></defs></svg>