<svg xmlns="http://www.w3.org/2000/svg" version="1.1" xmlns:xlink="http://www.w3.org/1999/xlink" xmlns:svgjs="http://svgjs.com/svgjs" width="1440" height="4000" preserveAspectRatio="none" viewBox="0 0 1440 4000"><g mask="url(&quot;#SvgjsMask1063&quot;)" fill="none"><rect width="1440" height="4000" x="0" y="0" fill="rgba(23, 221, 91, 0.95)"></rect><path d="M0,1722.956C305.915,1632.049,465.822,1314.151,723.941,1126.473C961.99,953.387,1313.623,922.578,1455.463,664.688C1598.838,404.007,1511.135,83.127,1458.868,-209.754C1408.141,-494.006,1340.945,-780.013,1157.808,-1003.247C971.902,-1229.856,691.017,-1330.921,429.879,-1464.034C107.862,-1628.179,-194.096,-1935.617,-550.227,-1873.9C-906.668,-1812.129,-1109.067,-1439.393,-1336.346,-1157.95C-1556.264,-885.621,-1793.481,-611.457,-1848.825,-265.821C-1904.581,82.384,-1774.755,423.168,-1641.821,749.794C-1503.851,1088.794,-1380.572,1471.678,-1065.724,1658.299C-753.241,1843.518,-348.203,1826.43,0,1722.956" fill="rgba(17, 161, 66, 0.95)"></path><path d="M1440 5686.196C1743.673 5613.901 1888.313 5274.978 2150.816 5106.052 2413.081 4937.279 2783.151 4947.651 2972.6220000000003 4699.925 3174.298 4436.242 3290.115 4064.745 3189.116 3748.515 3089.3140000000003 3436.036 2728.875 3306.855 2465.318 3111.557 2258.6459999999997 2958.4120000000003 2060.707 2799.048 1813.211 2728.96 1567.412 2659.352 1315.675 2680.2960000000003 1062.481 2714.2870000000003 768.124 2753.8050000000003 397.99 2705.108 219.9849999999999 2942.851 39.88000000000011 3183.399 256.855 3526.733 230.07999999999993 3826.04 205.34799999999996 4102.51 29.789999999999964 4351.191 69.42399999999998 4625.921 116.43000000000006 4951.753 212.00199999999995 5304.201 472.38699999999994 5505.635 737.267 5710.546 1114.217 5763.755 1440 5686.196" fill="rgba(74, 236, 130, 0.95)"></path></g><defs><mask id="SvgjsMask1063"><rect width="1440" height="4000" fill="#ffffff"></rect></mask></defs></svg>